<svg width="60" height="60" viewBox="0 0 60 60" fill="none" xmlns="http://www.w3.org/2000/svg">
<circle r="29.25" transform="matrix(-1 0 0 1 30 30)" stroke="#46312A" stroke-width="1.5"/>
<path fill-rule="evenodd" clip-rule="evenodd" d="M40.5 30C40.5 29.8011 40.421 29.6103 40.2803 29.4696C40.1397 29.329 39.9489 29.25 39.75 29.25H22.0605L26.781 24.531C26.8507 24.4612 26.906 24.3785 26.9438 24.2873C26.9815 24.1962 27.0009 24.0986 27.0009 24C27.0009 23.9014 26.9815 23.8037 26.9438 23.7126C26.906 23.6215 26.8507 23.5387 26.781 23.469C26.7113 23.3992 26.6285 23.3439 26.5374 23.3062C26.4463 23.2684 26.3486 23.249 26.25 23.249C26.1514 23.249 26.0537 23.2684 25.9626 23.3062C25.8715 23.3439 25.7887 23.3992 25.719 23.469L19.719 29.469C19.6492 29.5386 19.5937 29.6214 19.5559 29.7125C19.5181 29.8036 19.4987 29.9013 19.4987 30C19.4987 30.0986 19.5181 30.1963 19.5559 30.2874C19.5937 30.3785 19.6492 30.4613 19.719 30.531L25.719 36.531C25.7887 36.6007 25.8715 36.656 25.9626 36.6938C26.0537 36.7315 26.1514 36.7509 26.25 36.7509C26.3486 36.7509 26.4463 36.7315 26.5374 36.6938C26.6285 36.656 26.7113 36.6007 26.781 36.531C26.8507 36.4612 26.906 36.3785 26.9438 36.2873C26.9815 36.1962 27.0009 36.0986 27.0009 36C27.0009 35.9014 26.9815 35.8037 26.9438 35.7126C26.906 35.6215 26.8507 35.5387 26.781 35.469L22.0605 30.75H39.75C39.9489 30.75 40.1397 30.671 40.2803 30.5303C40.421 30.3896 40.5 30.1989 40.5 30Z" fill="#46312A"/>
</svg>
