<svg width="60" height="60" viewBox="0 0 60 60" fill="none" xmlns="http://www.w3.org/2000/svg">
<circle cx="30" cy="30" r="29.25" stroke="#46312A" stroke-width="1.5"/>
<path fill-rule="evenodd" clip-rule="evenodd" d="M19.5 30C19.5 29.8011 19.579 29.6103 19.7197 29.4696C19.8603 29.329 20.0511 29.25 20.25 29.25H37.9395L33.219 24.531C33.1493 24.4612 33.094 24.3785 33.0562 24.2873C33.0185 24.1962 32.9991 24.0986 32.9991 24C32.9991 23.9014 33.0185 23.8037 33.0562 23.7126C33.094 23.6215 33.1493 23.5387 33.219 23.469C33.2887 23.3992 33.3715 23.3439 33.4626 23.3062C33.5537 23.2684 33.6514 23.249 33.75 23.249C33.8486 23.249 33.9463 23.2684 34.0374 23.3062C34.1285 23.3439 34.2113 23.3992 34.281 23.469L40.281 29.469C40.3508 29.5386 40.4063 29.6214 40.4441 29.7125C40.4819 29.8036 40.5013 29.9013 40.5013 30C40.5013 30.0986 40.4819 30.1963 40.4441 30.2874C40.4063 30.3785 40.3508 30.4613 40.281 30.531L34.281 36.531C34.2113 36.6007 34.1285 36.656 34.0374 36.6938C33.9463 36.7315 33.8486 36.7509 33.75 36.7509C33.6514 36.7509 33.5537 36.7315 33.4626 36.6938C33.3715 36.656 33.2887 36.6007 33.219 36.531C33.1493 36.4612 33.094 36.3785 33.0562 36.2873C33.0185 36.1962 32.9991 36.0986 32.9991 36C32.9991 35.9014 33.0185 35.8037 33.0562 35.7126C33.094 35.6215 33.1493 35.5387 33.219 35.469L37.9395 30.75H20.25C20.0511 30.75 19.8603 30.671 19.7197 30.5303C19.579 30.3896 19.5 30.1989 19.5 30Z" fill="#46312A"/>
</svg>
