
        <svg xmlns="http://www.w3.org/2000/svg" xmlns:xlink="http://www.w3.org/1999/xlink" version="1.1" width="3168.5393258426966" 
        height="1162.9213483146068" viewBox="0 0 3168.5393258426966 1162.9213483146068">
			
			<g transform="scale(8.426966292134832) translate(10, 10)">
				<defs id="SvgjsDefs1812"></defs><g id="SvgjsG1813" featureKey="LwVBM5-0" transform="matrix(21.790564112347205,0,0,21.790564112347205,-4.487307695584712,4.328937169275267)" fill="#111111"><g xmlns="http://www.w3.org/2000/svg"><path fill="#111111" d="M2.549,3.013c0.013-0.026-0.018-0.046-0.038-0.029C2.499,2.993,2.495,2.993,2.482,2.997   c-0.003,0-0.005,0.001-0.007,0.001c0.002-0.001-0.005,0-0.005,0C2.463,3,2.456,3,2.449,3C2.446,3,2.426,2.999,2.437,3   c0.006,0.001-0.006,0-0.013-0.001c-0.003,0-0.005-0.001-0.01-0.001C2.399,2.994,2.386,2.989,2.371,2.984c-0.001,0-0.001,0-0.001,0   c-0.001,0-0.001,0-0.003-0.001C2.364,2.981,2.36,2.979,2.357,2.977c-0.007-0.003-0.014-0.006-0.02-0.01   C2.336,2.965,2.334,2.964,2.334,2.963c-0.001,0-0.002-0.002-0.003-0.002C2.33,2.959,2.33,2.957,2.329,2.956   C2.328,2.955,2.327,2.953,2.326,2.952c0-0.002,0-0.005-0.001-0.007c-0.004-0.01-0.008-0.021-0.01-0.031   c0-0.002-0.001-0.013-0.001-0.016c-0.001-0.009-0.001-0.018,0-0.026c0-0.015,0.001-0.03,0.002-0.044   c0.001,0,0.001-0.002,0.001-0.003c0-0.002,0-0.004,0-0.005C2.318,2.812,2.32,2.804,2.321,2.796   c0.004-0.013,0.007-0.025,0.011-0.038c0.001-0.001,0.002-0.002,0.002-0.004C2.339,2.746,2.343,2.74,2.347,2.733   C2.349,2.73,2.352,2.727,2.354,2.724c0.005-0.006,0.009-0.012,0.015-0.018C2.38,2.692,2.394,2.68,2.406,2.668   c0.002-0.002,0.013-0.012,0.015-0.013c0.005-0.004,0.011-0.008,0.016-0.012c0.015-0.011,0.03-0.021,0.048-0.03   C2.49,2.61,2.499,2.606,2.506,2.603c0.005-0.002,0.008-0.003,0.011-0.005c0.001,0,0.001,0,0.002,0   c0.017-0.007,0.033-0.012,0.05-0.017c0.003-0.001,0.019-0.003,0.02-0.003c0.005,0,0.012-0.001,0.016-0.001   c0.007-0.001,0.016-0.001,0.024,0c0.003,0,0.006,0,0.009,0c0.002,0,0.003,0,0.006,0.001c0.01,0.001,0.019,0.003,0.029,0.007   c0.002,0,0.018,0.006,0.005,0.001C2.691,2.59,2.693,2.591,2.685,2.587C2.688,2.589,2.688,2.59,2.692,2.591   c0.021,0.01,0.035,0.022,0.054,0.034C2.771,2.64,2.8,2.614,2.792,2.589c-0.011-0.04-0.04-0.071-0.072-0.094   c-0.033-0.022-0.071-0.03-0.11-0.034C2.535,2.453,2.454,2.483,2.394,2.521C2.328,2.561,2.27,2.615,2.23,2.68   C2.222,2.696,2.213,2.714,2.209,2.732c0-0.001-0.001-0.001-0.002-0.002C2.172,2.669,2.137,2.609,2.1,2.55   C2.024,2.424,1.941,2.301,1.844,2.191C1.81,2.153,1.771,2.116,1.731,2.083C1.689,2.048,1.644,2.014,1.595,1.989   C1.567,1.977,1.541,1.964,1.513,1.957s-0.059-0.01-0.087-0.013c-0.027-0.002-0.053,0-0.08,0.005   C1.319,1.955,1.294,1.961,1.267,1.962c-0.018,0-0.018,0.027,0.001,0.027c0.032,0,0.063,0.014,0.092,0.03   c0.002,0,0.011,0.004,0.013,0.005C1.375,2.025,1.378,2.026,1.38,2.028c0.008,0.003,0.015,0.006,0.021,0.009   c0.016,0.007,0.03,0.015,0.044,0.023c0.029,0.016,0.058,0.031,0.086,0.047c0.014,0.008,0.027,0.016,0.04,0.025   c0.008,0.004,0.014,0.008,0.021,0.013c0.003,0.002,0.013,0.01,0.017,0.013c0.052,0.04,0.099,0.086,0.144,0.135   c0.011,0.013,0.021,0.025,0.031,0.038C1.79,2.337,1.795,2.344,1.799,2.35l0,0C1.804,2.355,1.807,2.359,1.81,2.364   C1.832,2.393,1.852,2.421,1.873,2.45c0.061,0.087,0.115,0.178,0.168,0.269c0.026,0.043,0.052,0.087,0.078,0.13   c0.012,0.02,0.023,0.04,0.037,0.06c0.016,0.024,0.033,0.044,0.059,0.055c0.007,0.013,0.013,0.024,0.022,0.035   c0.01,0.013,0.024,0.023,0.038,0.031c0.021,0.018,0.046,0.032,0.072,0.042C2.419,3.1,2.515,3.09,2.549,3.013z"></path><path fill="#111111" d="M3.582,2.026C3.539,2.018,3.494,2.029,3.455,2.043C3.41,2.058,3.368,2.079,3.33,2.103   C3.258,2.151,3.197,2.209,3.149,2.282C3.104,2.35,3.072,2.428,3.042,2.505C3.027,2.542,3.014,2.581,3,2.619   C2.993,2.637,2.985,2.655,2.979,2.674C2.976,2.682,2.972,2.691,2.969,2.7C2.968,2.702,2.968,2.702,2.968,2.703   c0,0-0.001,0-0.001,0.001C2.964,2.71,2.961,2.716,2.959,2.722C2.941,2.766,2.921,2.808,2.896,2.848   C2.884,2.868,2.87,2.888,2.856,2.908c-0.003,0.003-0.005,0.006-0.008,0.01C2.851,2.916,2.841,2.928,2.84,2.93   C2.831,2.94,2.823,2.953,2.813,2.964c-0.009,0.01-0.017,0.02-0.024,0.03C2.784,3,2.779,3.006,2.775,3.013   c0,0-0.01,0.011-0.011,0.013C2.748,3.048,2.73,3.07,2.713,3.092C2.695,3.115,2.679,3.136,2.661,3.16   c-0.014,0.02-0.022,0.04-0.034,0.06C2.618,3.235,2.635,3.248,2.648,3.241c0.019-0.008,0.035-0.014,0.051-0.025   c0.021-0.013,0.04-0.027,0.06-0.042c0.034-0.03,0.069-0.062,0.103-0.095c0.034-0.034,0.062-0.072,0.092-0.11   C2.977,2.937,3,2.902,3.02,2.867c0.04-0.074,0.066-0.155,0.088-0.235c0.011-0.039,0.021-0.078,0.033-0.117   C3.146,2.497,3.152,2.479,3.157,2.46c0.004-0.01,0.008-0.018,0.011-0.027C3.17,2.428,3.17,2.423,3.173,2.419   c0-0.003,0.001-0.006,0.004-0.009c0-0.001,0.001-0.003,0.001-0.003c0.032-0.082,0.08-0.155,0.145-0.216   c0.034-0.034,0.073-0.065,0.113-0.093c0.043-0.029,0.094-0.041,0.143-0.043C3.593,2.053,3.599,2.029,3.582,2.026z"></path><path fill="#111111" d="M2.285,3.199c0.001,0.01,0,0.023-0.002,0.032C2.282,3.239,2.281,3.24,2.278,3.246   C2.28,3.24,2.277,3.248,2.277,3.248C2.275,3.25,2.274,3.253,2.273,3.256c0,0,0,0-0.001,0.001C2.27,3.262,2.267,3.266,2.265,3.271   c0,0-0.001,0-0.001,0.001v0C2.262,3.274,2.261,3.276,2.257,3.278C2.254,3.282,2.251,3.286,2.247,3.29   C2.244,3.292,2.242,3.293,2.24,3.295c-0.002,0.001-0.012,0.01-0.003,0.003c-0.003,0.003-0.008,0.007-0.013,0.01l0,0   C2.22,3.312,2.214,3.316,2.21,3.319C2.198,3.327,2.187,3.334,2.176,3.342C2.152,3.356,2.13,3.372,2.108,3.387   C2.063,3.419,2.016,3.462,1.992,3.515C1.962,3.587,1.978,3.662,2.02,3.727c0.018,0.025,0.036,0.049,0.057,0.072   c0.008,0.01,0.017,0.02,0.025,0.03c-0.002,0,0.008,0.011,0.008,0.013c0.004,0.006,0.009,0.012,0.012,0.018   c0.004,0.005,0.007,0.01,0.009,0.015c0.001,0,0.002,0.002,0.003,0.003C2.131,3.876,2.135,3.884,2.135,3.886   C2.137,3.893,2.14,3.899,2.142,3.907c0.001,0.002,0.001,0.006,0.002,0.008c0,0.001,0.001,0.004,0.001,0.006   c0.002,0.014,0.002,0.028,0.001,0.042c0,0.008,0,0.015-0.001,0.022C2.146,3.98,2.143,3.999,2.142,4.001   C2.136,4.033,2.126,4.064,2.117,4.094C2.104,4.13,2.094,4.153,2.08,4.189c0,0.001-0.001,0.002-0.002,0.005   c-0.004,0.007-0.007,0.014-0.01,0.021C2.066,4.223,2.064,4.23,2.061,4.238C2.055,4.254,2.048,4.27,2.044,4.286   C2.037,4.314,2.028,4.342,2.021,4.371C2.013,4.403,2.059,4.422,2.073,4.393c0.019-0.034,0.039-0.065,0.06-0.098   c0.02-0.038,0.04-0.075,0.057-0.116C2.223,4.1,2.254,4.014,2.247,3.926c-0.006-0.085-0.053-0.15-0.104-0.215   c0.008,0.011-0.001,0-0.002-0.002c-0.004-0.003-0.006-0.006-0.009-0.01c-0.004-0.007-0.01-0.014-0.015-0.021   C2.113,3.67,2.109,3.664,2.105,3.656C2.104,3.652,2.102,3.648,2.099,3.645c0,0-0.001-0.001-0.001-0.002   C2.097,3.641,2.097,3.64,2.097,3.638C2.093,3.63,2.091,3.622,2.089,3.613c0-0.001,0-0.005-0.002-0.008c0-0.001,0-0.003,0-0.004   c-0.001-0.006-0.001-0.012,0-0.018c0-0.003,0.002-0.005,0.002-0.008C2.09,3.57,2.092,3.566,2.093,3.562   c0-0.001,0-0.002,0.001-0.003c0.004-0.008,0.01-0.016,0.015-0.023c0.001-0.001,0.001-0.002,0.003-0.003   c0.002-0.004,0.007-0.008,0.01-0.012c0.008-0.008,0.015-0.015,0.022-0.022c0.032-0.03,0.068-0.056,0.1-0.086   c0.031-0.028,0.06-0.06,0.075-0.099c0.018-0.042,0.016-0.083-0.007-0.122C2.304,3.18,2.283,3.185,2.285,3.199z"></path><path fill="#111111" d="M3.14,4.408C3.121,4.371,3.095,4.337,3.068,4.305C3.016,4.241,2.95,4.184,2.882,4.138   C2.85,4.116,2.816,4.096,2.784,4.075c-0.017-0.01-0.032-0.021-0.047-0.032C2.73,4.038,2.724,4.032,2.715,4.026   c0,0-0.003-0.002-0.005-0.004c-0.003-0.003-0.006-0.006-0.011-0.01C2.687,4,2.675,3.985,2.663,3.972   c0-0.001-0.001-0.002-0.001-0.002c0,0,0,0-0.001-0.001C2.659,3.965,2.656,3.961,2.654,3.957C2.647,3.947,2.644,3.937,2.64,3.927   c0-0.001-0.001-0.004-0.003-0.006C2.635,3.917,2.635,3.913,2.634,3.909C2.633,3.902,2.631,3.895,2.631,3.888   c0,0-0.001-0.007-0.001-0.009c0-0.005,0-0.01,0-0.014c0-0.011,0.001-0.022,0.001-0.033c0.001-0.004,0.002-0.009,0.003-0.014   c0,0,0,0,0,0c0-0.001,0-0.001,0-0.002C2.636,3.805,2.64,3.794,2.642,3.783C2.647,3.76,2.655,3.739,2.663,3.718   C2.68,3.676,2.699,3.635,2.716,3.593C2.751,3.51,2.787,3.429,2.787,3.338c0-0.018-0.023-0.021-0.03-0.005   C2.742,3.367,2.722,3.399,2.701,3.431C2.68,3.467,2.659,3.502,2.635,3.537C2.589,3.608,2.547,3.687,2.523,3.77   C2.5,3.856,2.508,3.952,2.559,4.027c0.048,0.072,0.118,0.117,0.193,0.157c0.08,0.043,0.157,0.086,0.229,0.145   c0.067,0.057,0.13,0.135,0.169,0.216C3.159,4.567,3.197,4.554,3.19,4.53C3.177,4.489,3.159,4.447,3.14,4.408z"></path><path fill="#111111" d="M1.944,1.389C1.908,1.549,1.9,1.716,1.94,1.875c0.021,0.077,0.055,0.152,0.101,0.218   C2.085,2.158,2.14,2.217,2.21,2.256c0.125,0.069,0.273,0.059,0.4,0.001C2.671,2.23,2.725,2.19,2.771,2.142   C2.793,2.117,2.814,2.089,2.831,2.06c0.008-0.013,0.013-0.026,0.02-0.04c0.003-0.006,0.006-0.013,0.008-0.02   c0-0.001,0.001-0.004,0.003-0.005C2.859,1.997,2.859,1.998,2.858,2C2.864,1.989,2.867,1.978,2.87,1.967   C2.875,1.951,2.878,1.936,2.88,1.92C2.881,1.913,2.881,1.906,2.882,1.9C2.881,1.915,2.883,1.895,2.883,1.889   C2.882,1.88,2.882,1.872,2.881,1.864C2.88,1.842,2.878,1.833,2.873,1.81c-0.004-0.018-0.01-0.035-0.017-0.051   C2.846,1.736,2.812,1.738,2.812,1.766c0,0.016-0.003,0.032-0.005,0.046c0,0.008,0,0.008-0.002,0.017   c0,0.003-0.002,0.007-0.002,0.01C2.803,1.851,2.803,1.853,2.803,1.847C2.802,1.849,2.801,1.852,2.801,1.854   C2.8,1.859,2.798,1.865,2.797,1.871c0,0-0.005,0.012-0.006,0.015C2.79,1.889,2.789,1.892,2.788,1.896   C2.786,1.903,2.784,1.91,2.78,1.917C2.779,1.918,2.779,1.921,2.778,1.923C2.777,1.926,2.776,1.929,2.775,1.932   C2.768,1.945,2.762,1.958,2.754,1.971c-0.003,0.006-0.006,0.012-0.01,0.018C2.741,1.993,2.739,1.995,2.736,1.998   C2.735,2,2.733,2.004,2.732,2.006C2.73,2.007,2.729,2.009,2.728,2.01C2.727,2.012,2.725,2.014,2.724,2.016   c0,0-0.001,0.001-0.002,0.003C2.716,2.024,2.712,2.03,2.708,2.036C2.697,2.048,2.686,2.059,2.674,2.07   C2.669,2.075,2.663,2.08,2.657,2.085c-0.001,0-0.002,0.001-0.003,0.002C2.653,2.089,2.65,2.091,2.648,2.092   C2.636,2.101,2.622,2.11,2.609,2.119C2.596,2.126,2.583,2.134,2.57,2.141c-0.005,0.003-0.01,0.005-0.016,0.007   C2.554,2.148,2.553,2.149,2.551,2.149C2.547,2.151,2.542,2.153,2.538,2.155C2.523,2.16,2.511,2.165,2.496,2.168   C2.488,2.17,2.482,2.172,2.475,2.173C2.471,2.174,2.456,2.177,2.454,2.177C2.426,2.181,2.398,2.181,2.371,2.179   c-0.001,0-0.001,0-0.002,0c-0.002,0-0.004,0-0.007,0C2.355,2.177,2.349,2.175,2.342,2.173C2.326,2.17,2.312,2.166,2.296,2.16l0,0   C2.293,2.159,2.29,2.158,2.287,2.156c-0.006-0.003-0.013-0.007-0.021-0.01C2.262,2.142,2.254,2.138,2.248,2.134   C2.244,2.132,2.241,2.13,2.238,2.127c-0.001,0-0.002-0.001-0.003-0.002c-0.013-0.01-0.025-0.02-0.036-0.032   c-0.006-0.006-0.013-0.013-0.018-0.02C2.177,2.07,2.174,2.066,2.171,2.063C2.17,2.061,2.163,2.054,2.162,2.052   c-0.023-0.029-0.043-0.061-0.06-0.094C2.098,1.95,2.094,1.942,2.09,1.934c0-0.002-0.001-0.004-0.003-0.006   C2.085,1.924,2.085,1.922,2.084,1.918C2.077,1.9,2.069,1.882,2.064,1.863C2.058,1.846,2.054,1.828,2.05,1.81   C2.048,1.801,2.045,1.792,2.044,1.784C2.043,1.779,2.043,1.774,2.041,1.77c0-0.002,0-0.004,0-0.006c0,0,0,0,0-0.001   C2.029,1.686,2.031,1.607,2.039,1.53C2.04,1.529,2.04,1.529,2.04,1.528V1.527c0.001-0.004,0.001-0.009,0.001-0.014   c0.002-0.009,0.003-0.019,0.004-0.028c0.003-0.02,0.008-0.04,0.012-0.061c0.009-0.039,0.02-0.078,0.029-0.116   C2.098,1.27,2.11,1.231,2.125,1.195c0.004-0.009,0.007-0.018,0.01-0.026c0.001-0.001,0.002-0.004,0.002-0.006   c0.002-0.004,0.005-0.007,0.005-0.011c0.008-0.019,0.016-0.037,0.023-0.055C2.241,0.929,2.351,0.78,2.447,0.625   C2.46,0.606,2.473,0.586,2.484,0.567C2.489,0.56,2.495,0.552,2.499,0.543c0.018,0.023,0.036,0.046,0.054,0.07   c0.026,0.038,0.052,0.078,0.075,0.118c0.047,0.081,0.09,0.166,0.13,0.252C2.799,1.07,2.84,1.156,2.882,1.241   c0.04,0.082,0.081,0.164,0.11,0.251C3.009,1.544,3.02,1.598,3.025,1.653c0.004,0.059,0.008,0.121-0.002,0.179   C3.02,1.86,3.06,1.872,3.065,1.844c0.012-0.049,0.023-0.097,0.026-0.148c0.002-0.047-0.003-0.094-0.011-0.14   c-0.015-0.09-0.046-0.176-0.082-0.26C2.96,1.207,2.912,1.121,2.872,1.032c-0.04-0.085-0.08-0.171-0.123-0.254   c-0.03-0.059-0.063-0.116-0.101-0.17C2.61,0.553,2.57,0.498,2.522,0.454c-0.02-0.016-0.048-0.013-0.06,0.008   C2.45,0.482,2.433,0.499,2.418,0.517C2.4,0.539,2.383,0.559,2.366,0.581C2.331,0.623,2.297,0.666,2.266,0.71   c-0.055,0.075-0.107,0.151-0.15,0.233C2.039,1.083,1.979,1.234,1.944,1.389z"></path><path fill="#111111" d="M2.861,1.996C2.862,1.993,2.862,1.994,2.861,1.996L2.861,1.996z"></path><path fill="#111111" d="M4.774,1.806c-0.006-0.01-0.011-0.019-0.018-0.028C4.742,1.756,4.727,1.735,4.71,1.715   C4.68,1.679,4.646,1.649,4.609,1.621C4.53,1.559,4.439,1.51,4.346,1.476c-0.188-0.069-0.395-0.043-0.58,0.02   C3.682,1.523,3.601,1.559,3.523,1.6C3.447,1.639,3.371,1.679,3.302,1.727C3.287,1.737,3.297,1.764,3.315,1.757   c0.046-0.016,0.089-0.035,0.132-0.054c0.045-0.019,0.091-0.036,0.137-0.053c0.092-0.034,0.185-0.066,0.28-0.087   c0.089-0.019,0.179-0.029,0.276-0.021C4.163,1.544,4.174,1.545,4.2,1.55c0.025,0.004,0.05,0.01,0.072,0.017   c0.012,0.003,0.022,0.007,0.034,0.01C4.312,1.58,4.318,1.582,4.322,1.584c0,0,0.012,0.004,0.013,0.004   c0.023,0.01,0.046,0.022,0.068,0.034c0.032,0.015,0.062,0.033,0.09,0.052c0.014,0.009,0.027,0.019,0.042,0.028   c0.003,0.002,0.006,0.004,0.009,0.006c0,0.001,0.002,0.001,0.002,0.002c0.001,0,0.002,0.001,0.004,0.002   c0.008,0.006,0.015,0.012,0.021,0.018c0.027,0.022,0.054,0.044,0.08,0.068C4.664,1.812,4.678,1.824,4.69,1.838   c0.001,0,0.001,0,0.002,0c-0.147,0.06-0.27,0.163-0.396,0.256C4.224,2.148,4.147,2.199,4.066,2.238   C3.985,2.275,3.897,2.29,3.81,2.292c-0.054,0-0.107-0.005-0.16-0.016C3.594,2.264,3.543,2.242,3.487,2.232   C3.464,2.229,3.441,2.258,3.462,2.277c0.018,0.015,0.035,0.027,0.056,0.037c0.021,0.01,0.046,0.017,0.07,0.023   C3.633,2.35,3.68,2.358,3.729,2.362C3.82,2.373,3.915,2.364,4.006,2.34C4.18,2.293,4.324,2.171,4.467,2.065   C4.56,1.995,4.658,1.931,4.768,1.89c0.021-0.008,0.036-0.034,0.021-0.055C4.782,1.826,4.778,1.816,4.774,1.806z"></path><path fill="#111111" d="M1.515,2.232c-0.057,0.01-0.108,0.031-0.163,0.043c-0.053,0.01-0.106,0.016-0.16,0.016   C1.104,2.29,1.016,2.275,0.937,2.238c-0.083-0.039-0.159-0.09-0.23-0.144C0.578,2.001,0.456,1.898,0.31,1.838c0,0,0.001,0,0.001,0   C0.323,1.824,0.337,1.812,0.35,1.799c0.026-0.024,0.053-0.046,0.08-0.068c0.007-0.006,0.015-0.012,0.021-0.018   c0.003-0.001,0.003-0.002,0.004-0.002C0.456,1.71,0.457,1.709,0.458,1.708c0.003-0.002,0.005-0.004,0.009-0.006   C0.48,1.693,0.494,1.683,0.508,1.674c0.029-0.019,0.059-0.037,0.091-0.052C0.62,1.61,0.643,1.598,0.667,1.588   c0,0,0.012-0.005,0.012-0.004C0.683,1.582,0.689,1.58,0.694,1.578c0.012-0.003,0.022-0.007,0.034-0.01   C0.753,1.561,0.776,1.555,0.801,1.55c0.026-0.005,0.037-0.006,0.06-0.008c0.099-0.008,0.188,0.002,0.276,0.021   c0.097,0.021,0.188,0.054,0.28,0.087c0.046,0.017,0.092,0.034,0.137,0.053C1.598,1.723,1.64,1.742,1.686,1.757   c0.019,0.006,0.029-0.02,0.014-0.031C1.629,1.679,1.554,1.639,1.479,1.6C1.4,1.559,1.32,1.523,1.237,1.495   C1.05,1.432,0.843,1.406,0.655,1.476C0.562,1.51,0.471,1.559,0.392,1.621c-0.037,0.028-0.07,0.058-0.101,0.094   c-0.017,0.02-0.032,0.041-0.046,0.062C0.238,1.787,0.232,1.795,0.227,1.806c-0.004,0.01-0.007,0.02-0.015,0.029   c-0.015,0.021,0,0.047,0.021,0.055c0.109,0.042,0.208,0.105,0.301,0.175C0.677,2.171,0.822,2.293,0.996,2.34   c0.09,0.024,0.185,0.032,0.277,0.022C1.321,2.358,1.368,2.35,1.414,2.337c0.023-0.007,0.049-0.013,0.07-0.023   c0.021-0.01,0.037-0.022,0.055-0.037C1.561,2.258,1.539,2.229,1.515,2.232z"></path><path fill="#111111" d="M3.497,1.486C3.486,1.512,3.522,1.527,3.539,1.511c0.069-0.065,0.106-0.158,0.126-0.25   c0.02-0.093,0.016-0.187,0.002-0.28C3.653,0.899,3.631,0.814,3.593,0.738C3.577,0.707,3.554,0.679,3.523,0.66   C3.49,0.639,3.446,0.639,3.409,0.651c-0.038,0.01-0.072,0.033-0.104,0.055C3.271,0.731,3.236,0.758,3.206,0.788   c-0.03,0.028-0.061,0.058-0.089,0.088c-0.028,0.028-0.051,0.06-0.076,0.089C3.03,0.979,3.046,0.998,3.062,0.989   c0.079-0.045,0.149-0.101,0.225-0.154C3.323,0.81,3.362,0.786,3.402,0.766C3.406,0.763,3.41,0.761,3.415,0.759   c0.001,0,0.002-0.001,0.003-0.001c0.001,0,0.001,0,0.004-0.001C3.43,0.753,3.439,0.751,3.446,0.749l0,0c0.001,0,0.001,0,0.001,0   c0.004,0,0.008,0,0.012,0l0,0c0.002,0,0.005,0.001,0.006,0.001c-0.001,0,0.003,0.001,0.007,0.003   C3.475,0.755,3.48,0.76,3.483,0.763c0,0,0,0.001,0.001,0.002c0.002,0.001,0.003,0.004,0.004,0.006   c0.006,0.007,0.01,0.015,0.014,0.022c0.002,0.002,0.002,0.004,0.003,0.006C3.504,0.797,3.507,0.805,3.508,0.807   c0.003,0.008,0.006,0.016,0.01,0.024C3.523,0.85,3.53,0.869,3.535,0.888c0.028,0.09,0.043,0.169,0.045,0.259   C3.583,1.206,3.577,1.253,3.562,1.31C3.547,1.371,3.52,1.428,3.497,1.486z"></path><path fill="#111111" d="M1.556,0.749c0.003,0,0.007,0,0.012,0l0,0c0,0,0,0,0.001,0c0.008,0.002,0.017,0.004,0.025,0.007   c0.001,0.001,0.003,0.001,0.004,0.001c0,0,0.001,0.001,0.001,0.001c0.006,0.002,0.01,0.004,0.015,0.006   C1.652,0.786,1.691,0.81,1.728,0.835c0.076,0.053,0.146,0.109,0.227,0.154c0.015,0.009,0.03-0.01,0.019-0.023   c-0.024-0.03-0.048-0.062-0.074-0.089c-0.029-0.03-0.059-0.06-0.09-0.088C1.778,0.758,1.744,0.731,1.71,0.706   C1.678,0.684,1.644,0.661,1.605,0.651C1.567,0.639,1.526,0.639,1.49,0.66C1.461,0.679,1.438,0.707,1.422,0.738   C1.385,0.814,1.361,0.899,1.349,0.981C1.334,1.075,1.33,1.168,1.35,1.261c0.02,0.091,0.057,0.185,0.125,0.25   c0.018,0.016,0.053,0.001,0.044-0.024C1.495,1.428,1.469,1.371,1.452,1.31C1.438,1.253,1.432,1.206,1.435,1.147   c0.003-0.09,0.017-0.169,0.044-0.259C1.486,0.869,1.49,0.85,1.497,0.831c0.004-0.008,0.006-0.016,0.009-0.024   c0.001-0.002,0.005-0.01,0.004-0.008c0-0.002,0.003-0.004,0.003-0.006c0.004-0.007,0.008-0.015,0.014-0.022   C1.527,0.769,1.528,0.767,1.53,0.765c0-0.001,0.001-0.002,0.002-0.002C1.534,0.76,1.54,0.755,1.543,0.753   C1.546,0.751,1.553,0.75,1.55,0.75C1.552,0.75,1.554,0.749,1.556,0.749L1.556,0.749z"></path></g></g><g id="SvgjsG1814" featureKey="textGroupContainer" transform="matrix(1,0,0,1,355,0)" fill="#111111"><rect xmlns="http://www.w3.org/2000/svg" y="0" height="1" width="1" opacity="0"></rect><rect xmlns="http://www.w3.org/2000/svg" y="0" x="-235" width="3" height="118"></rect></g><g id="SvgjsG1815" featureKey="YhTCwJ-0" transform="matrix(2.9282575558370003,0,0,2.9282575558370003,133.60761645884853,15.710102792402957)" fill="#111111"><path d="M6.78 5.84 q3.1 0 5.08 1.95 t2.02 5.13 q0 3.16 -1.99 5.1 t-5.07 1.98 l-5.32 0 l0 -14.16 l5.28 0 z M6.38 18.44 q2.66 0 4.17 -1.41 t1.53 -4.11 q0 -2.6 -1.48 -4.04 t-4.22 -1.48 l-3.2 0 l0 11.04 l3.2 0 z M20.560000000000002 10.4 q2.08 0 3.25 1.31 t1.19 3.71 l0 0.38 l-7.56 0 q0.12 1.3 0.98 2.14 t2.1 0.86 q1.9 0 2.96 -1.42 l1.18 0.92 q-0.74 0.96 -1.74 1.45 t-2.4 0.49 q-2.14 0 -3.44 -1.39 t-1.32 -3.53 q0 -2.12 1.33 -3.5 t3.47 -1.42 z M23.32 14.48 q-0.06 -1.22 -0.79 -1.93 t-2.05 -0.71 q-1.2 0 -2.02 0.68 t-1.02 1.96 l5.88 0 z M32.02 10.4 q0.36 0 0.64 0.1 l-0.1 1.58 q-0.44 -0.12 -0.84 -0.12 q-1.36 0 -2.05 0.89 t-0.69 2.51 l0 4.64 l-1.56 0 l0 -7.28 q0 -0.28 -0.08 -2.08 l1.48 0 q0.04 1.4 0.04 1.54 l0.04 0 q0.38 -0.8 1.23 -1.29 t1.89 -0.49 z M39.080000000000005 10.4 q2.14 0 2.94 1.78 q0.56 -0.92 1.26 -1.35 t1.72 -0.43 q1.82 0 2.68 0.95 t0.86 2.87 l0 5.78 l-1.56 0 l0 -5.66 q0 -2.46 -2.28 -2.5 q-1.06 0 -1.74 0.79 t-0.68 1.91 l0 5.46 l-1.56 0 l0 -5.42 q0 -1.38 -0.4 -2.06 t-1.42 -0.68 q-1.42 0 -2.15 0.95 t-0.73 2.63 l0 4.58 l-1.56 0 l0 -7.28 q-0.02 -0.7 -0.08 -2.08 l1.48 0 q0.04 1.38 0.04 1.54 l0.04 0 q0.38 -0.8 1.22 -1.29 t1.92 -0.49 z M52.42 5.84 q0.46 0 0.8 0.33 t0.34 0.81 q0 0.5 -0.32 0.82 t-0.82 0.32 t-0.82 -0.32 t-0.32 -0.82 q0 -0.48 0.34 -0.81 t0.8 -0.33 z M53.2 10.64 l0 9.36 l-1.56 0 l0 -9.36 l1.56 0 z M58 4.880000000000001 l0 15.12 l-1.56 0 l0 -15.12 l1.56 0 z M65.36 10.4 q2.08 0 3.25 1.31 t1.19 3.71 l0 0.38 l-7.56 0 q0.12 1.3 0.98 2.14 t2.1 0.86 q1.9 0 2.96 -1.42 l1.18 0.92 q-0.74 0.96 -1.74 1.45 t-2.4 0.49 q-2.14 0 -3.44 -1.39 t-1.32 -3.53 q0 -2.12 1.33 -3.5 t3.47 -1.42 z M68.12 14.48 q-0.06 -1.22 -0.79 -1.93 t-2.05 -0.71 q-1.2 0 -2.02 0.68 t-1.02 1.96 l5.88 0 z"></path></g><g id="SvgjsG1816" featureKey="duLK5n-0" transform="matrix(0.2966413075827169,0,0,0.2966413075827169,137.90507473065168,83.42186833418769)" fill="#111111"><path d="M5.34 20 l0 -7.2 l-5.02 -7.04 l2.2 0 l3.74 5.22 l3.74 -5.22 l2.18 0 l-5.02 7.04 l0 7.2 l-1.82 0 z M34.036 5.32 c4.1 0 7.46 3.34 7.46 7.46 c0 4.1 -3.36 7.42 -7.46 7.42 s-7.44 -3.32 -7.44 -7.42 c0 -4.12 3.34 -7.46 7.44 -7.46 z M34.036 18.44 c3.12 0 5.64 -2.56 5.64 -5.66 c0 -3.12 -2.52 -5.7 -5.64 -5.7 s-5.64 2.58 -5.64 5.7 c0 3.1 2.52 5.66 5.64 5.66 z M66.652 5.76 l1.8 0 l0 9.02 c0 3 -2.44 5.42 -5.44 5.42 c-2.98 0 -5.42 -2.42 -5.42 -5.42 l0 -9.02 l1.78 0 l0 9.02 c0 2.02 1.64 3.68 3.64 3.68 c2.02 0 3.64 -1.66 3.64 -3.68 l0 -9.02 z M91.168 12.42 l5.5 7.58 l-2.06 0 l-5.44 -7.48 l-2.04 0 l0 7.48 l-1.72 0 l0 -14.24 l4.94 0 c0.9 0 1.74 0.36 2.38 1 s1 1.48 1 2.38 c0 1.58 -1.1 2.9 -2.56 3.28 z M87.128 7.48 l0 3.32 l3.22 0 c0.92 0 1.66 -0.74 1.66 -1.66 s-0.74 -1.66 -1.66 -1.66 l-3.22 0 z M136.28000000000003 20.14 c-0.48 0 -0.96 -0.06 -1.44 -0.16 c-1.48 -0.3 -2.94 -1.04 -4.24 -2.16 l1.18 -1.34 c1.06 0.92 2.24 1.54 3.42 1.78 c1 0.22 1.98 0.14 2.76 -0.22 c0.52 -0.24 1.42 -0.84 1.42 -2.06 c0 -1.5 -1.6 -2.04 -3.16 -2.34 c-0.14 -0.02 -2.38 -0.48 -3.28 -1 c-1.2 -0.72 -1.84 -1.8 -1.84 -3.12 c0 -0.74 0.24 -1.44 0.66 -2.06 c0.42 -0.56 1 -1.02 1.68 -1.34 c1 -0.48 2.18 -0.62 3.38 -0.42 c1.3 0.22 2.62 0.84 3.78 1.8 l-1.14 1.38 c-2.06 -1.7 -4.06 -1.74 -5.26 -1.18 c-0.82 0.38 -1.3 1.08 -1.3 1.8 c0 1.36 1.16 1.88 3 2.28 c0.76 0.18 2.34 0.44 3.28 0.98 c1.3 0.72 1.98 1.84 1.98 3.22 c0 0.82 -0.22 1.58 -0.68 2.24 c-0.42 0.6 -1.06 1.06 -1.78 1.42 c-0.76 0.38 -1.54 0.5 -2.42 0.5 z M168.51600000000002 20 l-5.9 -8.28 l-3.08 2.9 l0 5.38 l-1.78 0 l0 -14.24 l1.78 0 l0 6.46 l6.86 -6.46 l2.56 0 l-4.98 4.7 l6.8 9.54 l-2.26 0 z M187.03200000000004 20 l0 -14.24 l1.8 0 l0 14.24 l-1.8 0 z M216.30800000000002 20 l-7.62 -11.26 l0 11.26 l-1.8 0 l0 -14.24 l1.96 0 l7.6 11.26 l0 -11.26 l1.8 0 l0 14.24 l-1.94 0 z M264.46000000000004 20 l-1.58 -4.14 l-5.82 0 l-1.58 4.14 l-1.92 0 l5.48 -14.24 l1.86 0 l5.5 14.24 l-1.94 0 z M262.18 14.1 l-2.2 -5.76 l-2.22 5.76 l4.42 0 z M285.35600000000005 20 l0 -12.48 l-3.76 0 l0 -1.76 l9.32 0 l0 1.76 l-3.76 0 l0 12.48 l-1.8 0 z M326.36800000000005 20 l0 -14.24 l1.8 0 l0 14.24 l-1.8 0 z M349.32400000000007 20 l0 -12.48 l-3.76 0 l0 -1.76 l9.32 0 l0 1.76 l-3.76 0 l0 12.48 l-1.8 0 z M371.9000000000001 8.5 l-1.26 0 l0 -2.76 l1.26 0 l0 2.76 z M393.4360000000001 20.14 c-0.48 0 -0.96 -0.06 -1.44 -0.16 c-1.48 -0.3 -2.94 -1.04 -4.24 -2.16 l1.18 -1.34 c1.06 0.92 2.24 1.54 3.42 1.78 c1 0.22 1.98 0.14 2.76 -0.22 c0.52 -0.24 1.42 -0.84 1.42 -2.06 c0 -1.5 -1.6 -2.04 -3.16 -2.34 c-0.14 -0.02 -2.38 -0.48 -3.28 -1 c-1.2 -0.72 -1.84 -1.8 -1.84 -3.12 c0 -0.74 0.24 -1.44 0.66 -2.06 c0.42 -0.56 1 -1.02 1.68 -1.34 c1 -0.48 2.18 -0.62 3.38 -0.42 c1.3 0.22 2.62 0.84 3.78 1.8 l-1.14 1.38 c-2.06 -1.7 -4.06 -1.74 -5.26 -1.18 c-0.82 0.38 -1.3 1.08 -1.3 1.8 c0 1.36 1.16 1.88 3 2.28 c0.76 0.18 2.34 0.44 3.28 0.98 c1.3 0.72 1.98 1.84 1.98 3.22 c0 0.82 -0.22 1.58 -0.68 2.24 c-0.42 0.6 -1.06 1.06 -1.78 1.42 c-0.76 0.38 -1.54 0.5 -2.42 0.5 z M433.5680000000001 20 l0 -14.24 l5.12 0 c0.9 0 1.76 0.36 2.38 1 c0.64 0.62 1 1.48 1 2.38 c0 0.7 -0.2 1.36 -0.6 1.92 l-0.02 0.02 l0.02 0.02 c0.56 0.22 1.08 0.56 1.5 1 c0.88 0.86 1.36 2.02 1.36 3.26 c0 1.22 -0.48 2.38 -1.36 3.26 c-0.86 0.86 -2.02 1.38 -3.24 1.38 l-6.16 0 z M435.34800000000007 18.26 l4.38 0 c1.56 -0.04 2.82 -1.36 2.82 -2.9 c0 -1.56 -1.26 -2.84 -2.82 -2.86 l-4.38 0 l0 5.76 z M435.34800000000007 10.76 l3.34 0 c0.88 -0.02 1.6 -0.74 1.6 -1.62 s-0.7 -1.6 -1.6 -1.64 l-3.34 0 l0 3.26 z M460.4240000000001 20 l0 -14.24 l9 0 l0 1.72 l-7.2 0 l0 3.34 l6.28 0 l0 1.78 l-6.28 0 l0 5.64 l7.02 0 l0 1.76 l-8.82 0 z M491.22000000000014 20.14 c-0.48 0 -0.96 -0.06 -1.44 -0.16 c-1.48 -0.3 -2.94 -1.04 -4.24 -2.16 l1.18 -1.34 c1.06 0.92 2.24 1.54 3.42 1.78 c1 0.22 1.98 0.14 2.76 -0.22 c0.52 -0.24 1.42 -0.84 1.42 -2.06 c0 -1.5 -1.6 -2.04 -3.16 -2.34 c-0.14 -0.02 -2.38 -0.48 -3.28 -1 c-1.2 -0.72 -1.84 -1.8 -1.84 -3.12 c0 -0.74 0.24 -1.44 0.66 -2.06 c0.42 -0.56 1 -1.02 1.68 -1.34 c1 -0.48 2.18 -0.62 3.38 -0.42 c1.3 0.22 2.62 0.84 3.78 1.8 l-1.14 1.38 c-2.06 -1.7 -4.06 -1.74 -5.26 -1.18 c-0.82 0.38 -1.3 1.08 -1.3 1.8 c0 1.36 1.16 1.88 3 2.28 c0.76 0.18 2.34 0.44 3.28 0.98 c1.3 0.72 1.98 1.84 1.98 3.22 c0 0.82 -0.22 1.58 -0.68 2.24 c-0.42 0.6 -1.06 1.06 -1.78 1.42 c-0.76 0.38 -1.54 0.5 -2.42 0.5 z M515.4960000000001 20 l0 -12.48 l-3.76 0 l0 -1.76 l9.32 0 l0 1.76 l-3.76 0 l0 12.48 l-1.8 0 z M539.412 16 l-1.78 0 l0 -10.68 l1.78 0 l0 10.68 z M538.532 17.66 c0.64 0 1.16 0.52 1.16 1.16 c0 0.66 -0.52 1.18 -1.16 1.18 s-1.18 -0.52 -1.18 -1.18 c0 -0.64 0.54 -1.16 1.18 -1.16 z"></path></g>
			</g>
		</svg>
	